<?xml version="1.0" standalone="no"?>
<!DOCTYPE svg PUBLIC "-//W3C//DTD SVG 20010904//EN"
 "http://www.w3.org/TR/2001/REC-SVG-20010904/DTD/svg10.dtd">
<svg version="1.0" xmlns="http://www.w3.org/2000/svg"
 width="879.000000pt" height="879.000000pt" viewBox="0 0 879.000000 879.000000"
 preserveAspectRatio="xMidYMid meet">
<metadata>
Created by potrace 1.14, written by Peter Selinger 2001-2017
</metadata>
<g transform="translate(0.000000,879.000000) scale(0.100000,-0.100000)"
fill="#000000" stroke="none">
<path d="M2339 8666 c-2 -2 -76 -6 -164 -10 -88 -4 -173 -9 -190 -10 -16 -2
-61 -6 -100 -10 -287 -28 -537 -103 -733 -221 -87 -53 -230 -154 -281 -200
-158 -141 -321 -342 -403 -497 -14 -26 -28 -45 -32 -41 -3 3 -6 -1 -6 -10 0
-9 -12 -42 -26 -74 -44 -99 -50 -116 -69 -190 -11 -40 -23 -73 -28 -73 -4 0
-5 -4 -2 -10 3 -5 -1 -45 -10 -87 -9 -43 -19 -98 -22 -123 -8 -65 -8 -64 -16
-77 -5 -8 -3 -13 3 -13 6 0 8 -4 5 -10 -5 -8 -17 -141 -19 -222 -1 -16 -5 -28
-10 -28 -5 0 -3 -6 3 -13 6 -8 9 -16 6 -19 -12 -12 -15 -431 -15 -2193 0
-1017 1 -1898 2 -1958 1 -59 -2 -110 -5 -114 -4 -3 -2 -12 4 -20 9 -10 8 -17
-2 -30 -8 -9 -9 -14 -3 -10 8 4 12 -11 12 -51 1 -31 3 -68 5 -82 2 -14 -1 -33
-6 -44 -6 -11 -5 -16 0 -13 6 4 11 -14 12 -41 5 -97 22 -285 27 -294 2 -3 7
-28 10 -55 4 -26 8 -55 9 -63 4 -25 16 -73 26 -100 4 -14 10 -36 13 -50 10
-57 63 -194 101 -260 11 -19 20 -40 21 -46 1 -7 12 -23 23 -36 12 -12 19 -28
17 -35 -3 -7 -1 -13 5 -13 6 0 7 -5 4 -10 -4 -6 -2 -9 3 -8 6 2 31 -28 57 -67
26 -38 52 -73 59 -77 6 -4 8 -8 4 -8 -3 0 6 -13 20 -29 73 -78 102 -115 103
-130 0 -9 3 -11 5 -5 5 13 100 -73 96 -88 -1 -5 2 -7 8 -3 5 3 10 1 10 -5 0
-6 4 -8 10 -5 5 3 10 -1 10 -10 0 -9 4 -14 8 -11 5 3 18 -5 30 -17 30 -32 50
-47 62 -47 5 0 10 -4 10 -10 0 -5 7 -10 15 -10 8 0 15 -4 15 -10 0 -5 7 -10
15 -10 7 0 18 -7 23 -16 5 -9 11 -15 13 -13 4 3 90 -49 99 -60 3 -3 12 -6 20
-6 8 0 14 -5 13 -12 -2 -7 4 -10 12 -7 8 4 17 -1 21 -10 3 -9 10 -13 15 -10 6
3 21 -1 34 -10 13 -9 31 -16 40 -16 10 0 13 -5 9 -12 -4 -6 -3 -8 3 -5 5 3 42
-5 82 -18 40 -14 79 -25 87 -25 8 0 14 -4 14 -8 0 -4 16 -9 37 -10 20 -2 41
-6 47 -9 5 -4 22 -8 36 -9 81 -9 115 -17 122 -27 6 -9 8 -9 8 0 0 7 6 11 13 8
20 -6 95 -15 187 -21 47 -4 87 -10 88 -15 2 -5 8 -9 13 -9 6 0 7 5 4 10 -3 6
-2 10 4 10 5 0 13 -5 16 -10 5 -8 11 -8 20 0 7 6 15 7 18 3 3 -4 60 -8 126 -8
67 0 121 -3 121 -7 0 -4 8 -4 17 -1 10 4 33 6 53 6 19 -1 91 -2 160 -3 79 -1
130 -6 139 -13 11 -9 13 -9 8 0 -6 9 78 12 353 12 277 0 359 -3 353 -12 -5 -9
-3 -9 8 0 22 18 963 17 952 0 -5 -9 -3 -9 8 0 21 17 1483 17 1472 0 -5 -9 -3
-9 8 0 20 16 299 16 299 0 0 -8 3 -8 8 1 10 15 183 23 175 7 -3 -5 0 -4 8 3
15 14 33 17 25 4 -3 -5 1 -9 9 -9 8 0 12 3 10 7 -2 4 16 7 40 7 30 0 42 -4 38
-11 -4 -6 1 -5 9 2 9 8 25 12 35 10 10 -1 23 1 30 5 6 4 14 3 18 -2 4 -7 15
-7 32 0 20 7 28 6 35 -3 4 -7 8 -8 8 -2 0 6 23 12 53 13 113 6 148 9 154 15 3
3 13 0 21 -7 9 -6 13 -7 9 -1 -4 7 6 12 26 13 70 4 113 9 127 15 35 13 152 36
161 30 5 -3 9 -1 9 5 0 6 7 8 15 5 8 -4 15 -1 15 7 0 7 3 10 6 6 6 -5 42 7
159 53 35 13 40 13 40 1 0 -5 3 -13 7 -17 4 -3 6 3 3 15 -3 17 6 26 45 46 27
14 57 22 67 19 13 -4 15 -3 5 4 -11 7 0 17 44 42 31 18 63 33 70 33 7 0 11 4
8 8 -3 5 15 21 38 36 24 15 48 35 55 43 7 8 13 12 13 8 0 -7 56 41 116 100 14
13 29 20 34 17 6 -4 10 -3 9 2 -3 13 12 43 23 43 5 0 6 -5 2 -12 -4 -7 -3 -8
5 -4 6 4 9 11 6 16 -7 12 35 61 47 54 6 -4 8 -3 5 3 -3 5 14 30 38 56 24 26
41 47 39 47 -3 0 7 16 22 35 17 23 33 34 42 30 12 -4 13 -3 2 10 -9 11 -9 15
-1 15 7 0 9 5 5 12 -5 7 -2 9 9 5 12 -4 14 -2 10 10 -4 10 1 21 13 30 10 8 18
16 16 19 -1 2 13 32 32 67 19 34 45 85 58 112 13 28 25 52 28 55 3 3 6 12 8
20 2 8 10 27 17 43 7 15 9 25 4 21 -6 -3 -3 11 6 33 9 21 19 49 21 63 3 13 8
27 12 30 4 3 7 16 8 30 1 22 10 79 19 120 2 8 4 28 4 43 1 16 4 26 9 24 4 -3
7 20 7 51 1 32 4 89 8 127 9 83 17 220 19 337 1 45 7 86 13 90 7 5 6 8 -1 8
-7 0 -10 13 -7 32 3 18 4 40 4 48 -2 51 -3 3514 -1 3585 1 22 3 55 4 73 1 19
-1 35 -4 37 -8 5 -4 130 4 143 4 7 3 12 -1 12 -12 0 -10 53 2 62 6 5 6 8 -1 8
-7 0 -11 40 -12 118 -1 64 -2 117 -3 117 -1 0 -3 34 -6 75 -2 41 -5 86 -6 100
-1 14 2 31 8 39 7 11 7 13 -2 7 -9 -5 -13 1 -14 21 -3 71 -9 124 -23 201 -8
46 -15 87 -14 90 1 4 -4 20 -10 35 -7 16 -12 34 -12 42 0 7 -10 44 -21 81 -12
38 -22 74 -23 79 -3 13 -100 211 -123 250 -197 335 -534 629 -877 765 -125 49
-286 89 -427 104 -31 4 -65 8 -75 10 -11 2 -64 7 -119 11 -55 4 -116 9 -135
12 -37 6 -4325 15 -4331 9z"/>
<path d="M8586 5712 c-3 -5 1 -9 9 -9 8 0 12 4 9 9 -3 4 -7 8 -9 8 -2 0 -6 -4
-9 -8z"/>
<path d="M8586 3632 c-3 -5 1 -9 9 -9 8 0 12 4 9 9 -3 4 -7 8 -9 8 -2 0 -6 -4
-9 -8z"/>
<path d="M8586 3472 c-3 -5 1 -9 9 -9 8 0 12 4 9 9 -3 4 -7 8 -9 8 -2 0 -6 -4
-9 -8z"/>
<path d="M8470 1469 c0 -5 5 -7 10 -4 6 3 10 8 10 11 0 2 -4 4 -10 4 -5 0 -10
-5 -10 -11z"/>
<path d="M8075 930 c-3 -5 -1 -10 4 -10 6 0 11 5 11 10 0 6 -2 10 -4 10 -3 0
-8 -4 -11 -10z"/>
<path d="M815 821 c-3 -5 -2 -12 3 -15 5 -3 9 1 9 9 0 17 -3 19 -12 6z"/>
<path d="M7895 731 c-3 -5 -2 -12 3 -15 5 -3 9 1 9 9 0 17 -3 19 -12 6z"/>
<path d="M935 701 c-3 -5 -2 -12 3 -15 5 -3 9 1 9 9 0 17 -3 19 -12 6z"/>
<path d="M7855 630 c-3 -5 -1 -10 4 -10 6 0 11 5 11 10 0 6 -2 10 -4 10 -3 0
-8 -4 -11 -10z"/>
<path d="M1053 605 c0 -8 4 -12 9 -9 5 3 6 10 3 15 -9 13 -12 11 -12 -6z"/>
<path d="M7600 530 c-12 -7 -10 -9 7 -7 12 0 19 5 17 9 -6 10 -6 10 -24 -2z"/>
<path d="M7435 470 c-3 -5 -1 -10 4 -10 6 0 11 5 11 10 0 6 -2 10 -4 10 -3 0
-8 -4 -11 -10z"/>
<path d="M1370 449 c0 -5 5 -7 10 -4 6 3 10 8 10 11 0 2 -4 4 -10 4 -5 0 -10
-5 -10 -11z"/>
<path d="M1415 430 c-3 -5 -1 -10 4 -10 6 0 11 5 11 10 0 6 -2 10 -4 10 -3 0
-8 -4 -11 -10z"/>
<path d="M7376 428 c3 -5 10 -6 15 -3 13 9 11 12 -6 12 -8 0 -12 -4 -9 -9z"/>
<path d="M1490 409 c0 -5 5 -7 10 -4 6 3 10 8 10 11 0 2 -4 4 -10 4 -5 0 -10
-5 -10 -11z"/>
<path d="M7177 385 c-4 -8 -3 -16 1 -19 4 -3 9 4 9 15 2 23 -3 25 -10 4z"/>
<path d="M7310 389 c0 -5 5 -7 10 -4 6 3 10 8 10 11 0 2 -4 4 -10 4 -5 0 -10
-5 -10 -11z"/>
<path d="M1690 369 c0 -5 5 -7 10 -4 6 3 10 8 10 11 0 2 -4 4 -10 4 -5 0 -10
-5 -10 -11z"/>
<path d="M7135 370 c3 -5 8 -10 11 -10 2 0 4 5 4 10 0 6 -5 10 -11 10 -5 0 -7
-4 -4 -10z"/>
<path d="M1825 350 c-3 -6 1 -7 9 -4 18 7 21 14 7 14 -6 0 -13 -4 -16 -10z"/>
<path d="M7030 356 c0 -2 7 -7 16 -10 8 -3 12 -2 9 4 -6 10 -25 14 -25 6z"/>
<path d="M1725 330 c-3 -6 1 -7 9 -4 18 7 21 14 7 14 -6 0 -13 -4 -16 -10z"/>
<path d="M1774 332 c4 -3 14 -7 22 -8 9 -1 13 0 10 4 -4 3 -14 7 -22 8 -9 1
-13 0 -10 -4z"/>
<path d="M1935 330 c-3 -5 -1 -10 4 -10 6 0 11 5 11 10 0 6 -2 10 -4 10 -3 0
-8 -4 -11 -10z"/>
<path d="M2476 317 c3 -10 9 -15 12 -12 3 3 0 11 -7 18 -10 9 -11 8 -5 -6z"/>
<path d="M3675 319 c-4 -6 -5 -12 -2 -15 2 -3 7 2 10 11 7 17 1 20 -8 4z"/>
<path d="M4155 319 c-4 -6 -5 -12 -2 -15 2 -3 7 2 10 11 7 17 1 20 -8 4z"/>
<path d="M2255 310 c3 -5 8 -10 11 -10 2 0 4 5 4 10 0 6 -5 10 -11 10 -5 0 -7
-4 -4 -10z"/>
<path d="M2395 311 c-3 -5 -2 -12 3 -15 5 -3 9 1 9 9 0 17 -3 19 -12 6z"/>
<path d="M3585 310 c-3 -6 1 -7 9 -4 18 7 21 14 7 14 -6 0 -13 -4 -16 -10z"/>
<path d="M3626 312 c-3 -5 1 -9 9 -9 8 0 15 4 15 9 0 4 -4 8 -9 8 -6 0 -12 -4
-15 -8z"/>
<path d="M3893 301 c0 -11 5 -18 9 -15 4 3 5 11 1 19 -7 21 -12 19 -10 -4z"/>
<path d="M3986 308 c3 -5 10 -6 15 -3 13 9 11 12 -6 12 -8 0 -12 -4 -9 -9z"/>
<path d="M4065 310 c-3 -6 1 -7 9 -4 18 7 21 14 7 14 -6 0 -13 -4 -16 -10z"/>
<path d="M4106 312 c-3 -5 1 -9 9 -9 8 0 15 4 15 9 0 4 -4 8 -9 8 -6 0 -12 -4
-15 -8z"/>
<path d="M6461 306 c-9 -11 -9 -16 1 -22 7 -4 10 -4 6 1 -4 4 -3 14 3 22 6 7
9 13 6 13 -2 0 -10 -6 -16 -14z"/>
<path d="M6735 310 c-3 -5 -1 -10 4 -10 6 0 11 5 11 10 0 6 -2 10 -4 10 -3 0
-8 -4 -11 -10z"/>
<path d="M6786 312 c-3 -5 1 -9 9 -9 8 0 12 4 9 9 -3 4 -7 8 -9 8 -2 0 -6 -4
-9 -8z"/>
<path d="M2773 295 c0 -8 4 -12 9 -9 5 3 6 10 3 15 -9 13 -12 11 -12 -6z"/>
<path d="M4693 295 c0 -8 4 -12 9 -9 5 3 6 10 3 15 -9 13 -12 11 -12 -6z"/>
<path d="M5333 295 c0 -8 4 -12 9 -9 5 3 6 10 3 15 -9 13 -12 11 -12 -6z"/>
<path d="M1990 291 c0 -6 4 -13 10 -16 6 -3 7 1 4 9 -7 18 -14 21 -14 7z"/>
<path d="M2094 292 c4 -3 14 -7 22 -8 9 -1 13 0 10 4 -4 3 -14 7 -22 8 -9 1
-13 0 -10 -4z"/>
<path d="M2155 290 c-3 -5 -1 -10 4 -10 6 0 11 5 11 10 0 6 -2 10 -4 10 -3 0
-8 -4 -11 -10z"/>
<path d="M2294 292 c4 -3 14 -7 22 -8 9 -1 13 0 10 4 -4 3 -14 7 -22 8 -9 1
-13 0 -10 -4z"/>
<path d="M2535 290 c3 -5 8 -10 11 -10 2 0 4 5 4 10 0 6 -5 10 -11 10 -5 0 -7
-4 -4 -10z"/>
<path d="M2670 295 c0 -7 30 -13 34 -7 3 4 -4 9 -15 9 -10 1 -19 0 -19 -2z"/>
<path d="M2806 292 c-3 -5 1 -9 9 -9 8 0 12 4 9 9 -3 4 -7 8 -9 8 -2 0 -6 -4
-9 -8z"/>
<path d="M3116 288 c3 -4 11 -5 19 -1 21 7 19 12 -4 10 -11 0 -18 -5 -15 -9z"/>
<path d="M3295 290 c3 -5 8 -10 11 -10 2 0 4 5 4 10 0 6 -5 10 -11 10 -5 0 -7
-4 -4 -10z"/>
<path d="M3456 288 c3 -4 11 -5 19 -1 21 7 19 12 -4 10 -11 0 -18 -5 -15 -9z"/>
<path d="M3530 290 c0 -5 5 -10 11 -10 5 0 7 5 4 10 -3 6 -8 10 -11 10 -2 0
-4 -4 -4 -10z"/>
<path d="M3796 292 c-3 -5 1 -9 9 -9 8 0 12 4 9 9 -3 4 -7 8 -9 8 -2 0 -6 -4
-9 -8z"/>
<path d="M3926 292 c-3 -5 1 -9 9 -9 8 0 12 4 9 9 -3 4 -7 8 -9 8 -2 0 -6 -4
-9 -8z"/>
<path d="M4010 290 c0 -5 5 -10 11 -10 5 0 7 5 4 10 -3 6 -8 10 -11 10 -2 0
-4 -4 -4 -10z"/>
<path d="M4255 290 c3 -5 8 -10 11 -10 2 0 4 5 4 10 0 6 -5 10 -11 10 -5 0 -7
-4 -4 -10z"/>
<path d="M4416 288 c3 -4 11 -5 19 -1 21 7 19 12 -4 10 -11 0 -18 -5 -15 -9z"/>
<path d="M4726 292 c-3 -5 1 -9 9 -9 8 0 12 4 9 9 -3 4 -7 8 -9 8 -2 0 -6 -4
-9 -8z"/>
<path d="M5036 288 c3 -4 11 -5 19 -1 21 7 19 12 -4 10 -11 0 -18 -5 -15 -9z"/>
<path d="M5365 290 c-3 -6 1 -7 9 -4 18 7 21 14 7 14 -6 0 -13 -4 -16 -10z"/>
<path d="M5676 288 c3 -4 11 -5 19 -1 21 7 19 12 -4 10 -11 0 -18 -5 -15 -9z"/>
<path d="M5855 290 c3 -5 8 -10 11 -10 2 0 4 5 4 10 0 6 -5 10 -11 10 -5 0 -7
-4 -4 -10z"/>
<path d="M6016 288 c3 -4 11 -5 19 -1 21 7 19 12 -4 10 -11 0 -18 -5 -15 -9z"/>
<path d="M6095 290 c-3 -5 -1 -10 4 -10 6 0 11 5 11 10 0 6 -2 10 -4 10 -3 0
-8 -4 -11 -10z"/>
<path d="M6356 288 c3 -4 11 -5 19 -1 21 7 19 12 -4 10 -11 0 -18 -5 -15 -9z"/>
<path d="M6536 288 c3 -5 10 -6 15 -3 13 9 11 12 -6 12 -8 0 -12 -4 -9 -9z"/>
<path d="M6576 292 c-2 -4 -1 -14 4 -22 7 -11 9 -9 7 8 -1 24 -3 26 -11 14z"/>
<path d="M2593 275 c0 -8 4 -12 9 -9 5 3 6 10 3 15 -9 13 -12 11 -12 -6z"/>
<path d="M6273 275 c0 -8 4 -12 9 -9 5 3 6 10 3 15 -9 13 -12 11 -12 -6z"/>
<path d="M1939 263 c-13 -16 -12 -17 4 -4 16 13 21 21 13 21 -2 0 -10 -8 -17
-17z"/>
<path d="M6944 272 c4 -3 14 -7 22 -8 9 -1 13 0 10 4 -4 3 -14 7 -22 8 -9 1
-13 0 -10 -4z"/>
<path d="M4156 217 c3 -10 9 -15 12 -12 3 3 0 11 -7 18 -10 9 -11 8 -5 -6z"/>
</g>
</svg>
