<svg version="1.0" xmlns="http://www.w3.org/2000/svg" width="1172" height="1172" viewBox="0 0 879 879"><path d="M233.9 12.4c-.2.2-7.6.6-16.4 1-8.8.4-17.3.9-19 1-1.6.2-6.1.6-10 1-28.7 2.8-53.7 10.3-73.3 22.1-8.7 5.3-23 15.4-28.1 20C71.3 71.6 55 91.7 46.8 107.2c-1.4 2.6-2.8 4.5-3.2 4.1-.3-.3-.6.1-.6 1s-1.2 4.2-2.6 7.4c-4.4 9.9-5 11.6-6.9 19-1.1 4-2.3 7.3-2.8 7.3-.4 0-.5.4-.2 1 .3.5-.1 4.5-1 8.7-.9 4.3-1.9 9.8-2.2 12.3-.8 6.5-.8 6.4-1.6 7.7-.5.8-.3 1.3.3 1.3s.8.4.5 1c-.5.8-1.7 14.1-1.9 22.2-.1 1.6-.5 2.8-1 2.8s-.3.6.3 1.3c.6.8.9 1.6.6 1.9-1.2 1.2-1.5 43.1-1.5 219.3 0 101.7.1 189.8.2 195.8.1 5.9-.2 11-.5 11.4-.4.3-.2 1.2.4 2 .9 1 .8 1.7-.2 3-.8.9-.9 1.4-.3 1 .8-.4 1.2 1.1 1.2 5.1.1 3.1.3 6.8.5 8.2.2 1.4-.1 3.3-.6 4.4-.6 1.1-.5 1.6 0 1.3.6-.4 1.1 1.4 1.2 4.1.5 9.7 2.2 28.5 2.7 29.4.2.3.7 2.8 1 5.5.4 2.6.8 5.5.9 6.3.4 2.5 1.6 7.3 2.6 10 .4 1.4 1 3.6 1.3 5 1 5.7 6.3 19.4 10.1 26 1.1 1.9 2 4 2.1 4.6.1.7 1.2 2.3 2.3 3.6 1.2 1.2 1.9 2.8 1.7 3.5-.3.7-.1 1.3.5 1.3s.7.5.4 1c-.4.6-.2.9.3.8.6-.2 3.1 2.8 5.7 6.7 2.6 3.8 5.2 7.3 5.9 7.7.6.4.8.8.4.8-.3 0 .6 1.3 2 2.9 7.3 7.8 10.2 11.5 10.3 13 0 .9.3 1.1.5.5.5-1.3 10 7.3 9.6 8.8-.1.5.2.7.8.3.5-.3 1-.1 1 .5s.4.8 1 .5c.5-.3 1 .1 1 1s.4 1.4.8 1.1c.5-.3 1.8.5 3 1.7 3 3.2 5 4.7 6.2 4.7.5 0 1 .4 1 1 0 .5.7 1 1.5 1s1.5.4 1.5 1c0 .5.7 1 1.5 1 .7 0 1.8.7 2.3 1.6.5.9 1.1 1.5 1.3 1.3.4-.3 9 4.9 9.9 6 .3.3 1.2.6 2 .6s1.4.5 1.3 1.2c-.2.7.4 1 1.2.7.8-.4 1.7.1 2.1 1 .3.9 1 1.3 1.5 1 .6-.3 2.1.1 3.4 1 1.3.9 3.1 1.6 4 1.6 1 0 1.3.5.9 1.2-.4.6-.3.8.3.5.5-.3 4.2.5 8.2 1.8 4 1.4 7.9 2.5 8.7 2.5.8 0 1.4.4 1.4.8s1.6.9 3.7 1c2 .2 4.1.6 4.7.9.5.4 2.2.8 3.6.9 8.1.9 11.5 1.7 12.2 2.7.6.9.8.9.8 0 0-.7.6-1.1 1.3-.8 2 .6 9.5 1.5 18.7 2.1 4.7.4 8.7 1 8.8 1.5.2.5.8.9 1.3.9.6 0 .7-.5.4-1-.3-.6-.2-1 .4-1 .5 0 1.3.5 1.6 1 .5.8 1.1.8 2 0 .7-.6 1.5-.7 1.8-.3.3.4 6 .8 12.6.8 6.7 0 12.1.3 12.1.7 0 .4.8.4 1.7.1 1-.4 3.3-.6 5.3-.6 1.9.1 9.1.2 16 .3 7.9.1 13 .6 13.9 1.3 1.1.9 1.3.9.8 0-.6-.9 7.8-1.2 35.3-1.2 27.7 0 35.9.3 35.3 1.2-.5.9-.3.9.8 0 2.2-1.8 96.3-1.7 95.2 0-.5.9-.3.9.8 0 2.1-1.7 148.3-1.7 147.2 0-.5.9-.3.9.8 0 2-1.6 29.9-1.6 29.9 0 0 .8.3.8.8-.1 1-1.5 18.3-2.3 17.5-.7-.3.5 0 .4.8-.3 1.5-1.4 3.3-1.7 2.5-.4-.3.5.1.9.9.9s1.2-.3 1-.7c-.2-.4 1.6-.7 4-.7 3 0 4.2.4 3.8 1.1-.4.6.1.5.9-.2.9-.8 2.5-1.2 3.5-1 1 .1 2.3-.1 3-.5.6-.4 1.4-.3 1.8.2.4.7 1.5.7 3.2 0 2-.7 2.8-.6 3.5.3.4.7.8.8.8.2 0-.6 2.3-1.2 5.3-1.3 11.3-.6 14.8-.9 15.4-1.5.3-.3 1.3 0 2.1.7.9.6 1.3.7.9.1-.4-.7.6-1.2 2.6-1.3 7-.4 11.3-.9 12.7-1.5 3.5-1.3 15.2-3.6 16.1-3 .5.3.9.1.9-.5s.7-.8 1.5-.5c.8.4 1.5.1 1.5-.7 0-.7.3-1 .6-.6.6.5 4.2-.7 15.9-5.3 3.5-1.3 4-1.3 4-.1 0 .5.3 1.3.7 1.7.4.3.6-.3.3-1.5-.3-1.7.6-2.6 4.5-4.6 2.7-1.4 5.7-2.2 6.7-1.9 1.3.4 1.5.3.5-.4-1.1-.7 0-1.7 4.4-4.2 3.1-1.8 6.3-3.3 7-3.3.7 0 1.1-.4.8-.8-.3-.5 1.5-2.1 3.8-3.6 2.4-1.5 4.8-3.5 5.5-4.3.7-.8 1.3-1.2 1.3-.8 0 .7 5.6-4.1 11.6-10 1.4-1.3 2.9-2 3.4-1.7.6.4 1 .3.9-.2-.3-1.3 1.2-4.3 2.3-4.3.5 0 .6.5.2 1.2-.4.7-.3.8.5.4.6-.4.9-1.1.6-1.6-.7-1.2 3.5-6.1 4.7-5.4.6.4.8.3.5-.3-.3-.5 1.4-3 3.8-5.6 2.4-2.6 4.1-4.7 3.9-4.7-.3 0 .7-1.6 2.2-3.5 1.7-2.3 3.3-3.4 4.2-3 1.2.4 1.3.3.2-1-.9-1.1-.9-1.5-.1-1.5.7 0 .9-.5.5-1.2-.5-.7-.2-.9.9-.5 1.2.4 1.4.2 1-1-.4-1 .1-2.1 1.3-3 1-.8 1.8-1.6 1.6-1.9-.1-.2 1.3-3.2 3.2-6.7 1.9-3.4 4.5-8.5 5.8-11.2 1.3-2.8 2.5-5.2 2.8-5.5.3-.3.6-1.2.8-2 .2-.8 1-2.7 1.7-4.3.7-1.5.9-2.5.4-2.1-.6.3-.3-1.1.6-3.3.9-2.1 1.9-4.9 2.1-6.3.3-1.3.8-2.7 1.2-3 .4-.3.7-1.6.8-3 .1-2.2 1-7.9 1.9-12 .2-.8.4-2.8.4-4.3.1-1.6.4-2.6.9-2.4.4.3.7-2 .7-5.1.1-3.2.4-8.9.8-12.7.9-8.3 1.7-22 1.9-33.7.1-4.5.7-8.6 1.3-9 .7-.5.6-.8-.1-.8s-1-1.3-.7-3.2c.3-1.8.4-4 .4-4.8-.2-5.1-.3-351.4-.1-358.5.1-2.2.3-5.5.4-7.3.1-1.9-.1-3.5-.4-3.7-.8-.5-.4-13 .4-14.3.4-.7.3-1.2-.1-1.2-1.2 0-1-5.3.2-6.2.6-.5.6-.8-.1-.8s-1.1-4-1.2-11.8c-.1-6.4-.2-11.7-.3-11.7-.1 0-.3-3.4-.6-7.5-.2-4.1-.5-8.6-.6-10-.1-1.4.2-3.1.8-3.9.7-1.1.7-1.3-.2-.7-.9.5-1.3-.1-1.4-2.1-.3-7.1-.9-12.4-2.3-20.1-.8-4.6-1.5-8.7-1.4-9 .1-.4-.4-2-1-3.5-.7-1.6-1.2-3.4-1.2-4.2 0-.7-1-4.4-2.1-8.1-1.2-3.8-2.2-7.4-2.3-7.9-.3-1.3-10-21.1-12.3-25C810.6 70 776.9 40.6 742.6 27c-12.5-4.9-28.6-8.9-42.7-10.4-3.1-.4-6.5-.8-7.5-1-1.1-.2-6.4-.7-11.9-1.1-5.5-.4-11.6-.9-13.5-1.2-3.7-.6-432.5-1.5-433.1-.9zM858.6 307.8c-.3.5.1.9.9.9s1.2-.4.9-.9c-.3-.4-.7-.8-.9-.8-.2 0-.6.4-.9.8zM858.6 515.8c-.3.5.1.9.9.9s1.2-.4.9-.9c-.3-.4-.7-.8-.9-.8-.2 0-.6.4-.9.8zM858.6 531.8c-.3.5.1.9.9.9s1.2-.4.9-.9c-.3-.4-.7-.8-.9-.8-.2 0-.6.4-.9.8zM847 732.1c0 .5.5.7 1 .4.6-.3 1-.8 1-1.1 0-.2-.4-.4-1-.4-.5 0-1 .5-1 1.1z"/><path d="M807.5 786c-.3.5-.1 1 .4 1 .6 0 1.1-.5 1.1-1 0-.6-.2-1-.4-1-.3 0-.8.4-1.1 1zM81.5 796.9c-.3.5-.2 1.2.3 1.5.5.3.9-.1.9-.9 0-1.7-.3-1.9-1.2-.6zM789.5 805.9c-.3.5-.2 1.2.3 1.5.5.3.9-.1.9-.9 0-1.7-.3-1.9-1.2-.6zM93.5 808.9c-.3.5-.2 1.2.3 1.5.5.3.9-.1.9-.9 0-1.7-.3-1.9-1.2-.6zM785.5 816c-.3.5-.1 1 .4 1 .6 0 1.1-.5 1.1-1 0-.6-.2-1-.4-1-.3 0-.8.4-1.1 1zM105.3 818.5c0 .8.4 1.2.9.9.5-.3.6-1 .3-1.5-.9-1.3-1.2-1.1-1.2.6zM760 826c-1.2.7-1 .9.7.7 1.2 0 1.9-.5 1.7-.9-.6-1-.6-1-2.4.2zM743.5 832c-.3.5-.1 1 .4 1 .6 0 1.1-.5 1.1-1 0-.6-.2-1-.4-1-.3 0-.8.4-1.1 1zM137 834.1c0 .5.5.7 1 .4.6-.3 1-.8 1-1.1 0-.2-.4-.4-1-.4-.5 0-1 .5-1 1.1zM141.5 836c-.3.5-.1 1 .4 1 .6 0 1.1-.5 1.1-1 0-.6-.2-1-.4-1-.3 0-.8.4-1.1 1zM737.6 836.2c.3.5 1 .6 1.5.3 1.3-.9 1.1-1.2-.6-1.2-.8 0-1.2.4-.9.9zM149 838.1c0 .5.5.7 1 .4.6-.3 1-.8 1-1.1 0-.2-.4-.4-1-.4-.5 0-1 .5-1 1.1zM717.7 840.5c-.4.8-.3 1.6.1 1.9.4.3.9-.4.9-1.5.2-2.3-.3-2.5-1-.4zM731 840.1c0 .5.5.7 1 .4.6-.3 1-.8 1-1.1 0-.2-.4-.4-1-.4-.5 0-1 .5-1 1.1zM169 842.1c0 .5.5.7 1 .4.6-.3 1-.8 1-1.1 0-.2-.4-.4-1-.4-.5 0-1 .5-1 1.1zM713.5 842c.3.5.8 1 1.1 1 .2 0 .4-.5.4-1 0-.6-.5-1-1.1-1-.5 0-.7.4-.4 1zM182.5 844c-.3.6.1.7.9.4 1.8-.7 2.1-1.4.7-1.4-.6 0-1.3.4-1.6 1zM703 843.4c0 .2.7.7 1.6 1 .8.3 1.2.2.9-.4-.6-1-2.5-1.4-2.5-.6zM172.5 846c-.3.6.1.7.9.4 1.8-.7 2.1-1.4.7-1.4-.6 0-1.3.4-1.6 1zM177.4 845.8c.4.3 1.4.7 2.2.8.9.1 1.3 0 1-.4-.4-.3-1.4-.7-2.2-.8-.9-.1-1.3 0-1 .4zM193.5 846c-.3.5-.1 1 .4 1 .6 0 1.1-.5 1.1-1 0-.6-.2-1-.4-1-.3 0-.8.4-1.1 1zM247.6 847.3c.3 1 .9 1.5 1.2 1.2.3-.3 0-1.1-.7-1.8-1-.9-1.1-.8-.5.6zM367.5 847.1c-.4.6-.5 1.2-.2 1.5.2.3.7-.2 1-1.1.7-1.7.1-2-.8-.4zM415.5 847.1c-.4.6-.5 1.2-.2 1.5.2.3.7-.2 1-1.1.7-1.7.1-2-.8-.4zM225.5 848c.3.5.8 1 1.1 1 .2 0 .4-.5.4-1 0-.6-.5-1-1.1-1-.5 0-.7.4-.4 1zM239.5 847.9c-.3.5-.2 1.2.3 1.5.5.3.9-.1.9-.9 0-1.7-.3-1.9-1.2-.6zM358.5 848c-.3.6.1.7.9.4 1.8-.7 2.1-1.4.7-1.4-.6 0-1.3.4-1.6 1zM362.6 847.8c-.3.5.1.9.9.9s1.5-.4 1.5-.9c0-.4-.4-.8-.9-.8-.6 0-1.2.4-1.5.8zM389.3 848.9c0 1.1.5 1.8.9 1.5.4-.3.5-1.1.1-1.9-.7-2.1-1.2-1.9-1 .4zM398.6 848.2c.3.5 1 .6 1.5.3 1.3-.9 1.1-1.2-.6-1.2-.8 0-1.2.4-.9.9zM406.5 848c-.3.6.1.7.9.4 1.8-.7 2.1-1.4.7-1.4-.6 0-1.3.4-1.6 1zM410.6 847.8c-.3.5.1.9.9.9s1.5-.4 1.5-.9c0-.4-.4-.8-.9-.8-.6 0-1.2.4-1.5.8zM646.1 848.4c-.9 1.1-.9 1.6.1 2.2.7.4 1 .4.6-.1-.4-.4-.3-1.4.3-2.2.6-.7.9-1.3.6-1.3-.2 0-1 .6-1.6 1.4zM673.5 848c-.3.5-.1 1 .4 1 .6 0 1.1-.5 1.1-1 0-.6-.2-1-.4-1-.3 0-.8.4-1.1 1zM678.6 847.8c-.3.5.1.9.9.9s1.2-.4.9-.9c-.3-.4-.7-.8-.9-.8-.2 0-.6.4-.9.8zM277.3 849.5c0 .8.4 1.2.9.9.5-.3.6-1 .3-1.5-.9-1.3-1.2-1.1-1.2.6zM469.3 849.5c0 .8.4 1.2.9.9.5-.3.6-1 .3-1.5-.9-1.3-1.2-1.1-1.2.6zM533.3 849.5c0 .8.4 1.2.9.9.5-.3.6-1 .3-1.5-.9-1.3-1.2-1.1-1.2.6zM199 849.9c0 .6.4 1.3 1 1.6.6.3.7-.1.4-.9-.7-1.8-1.4-2.1-1.4-.7zM209.4 849.8c.4.3 1.4.7 2.2.8.9.1 1.3 0 1-.4-.4-.3-1.4-.7-2.2-.8-.9-.1-1.3 0-1 .4zM215.5 850c-.3.5-.1 1 .4 1 .6 0 1.1-.5 1.1-1 0-.6-.2-1-.4-1-.3 0-.8.4-1.1 1zM229.4 849.8c.4.3 1.4.7 2.2.8.9.1 1.3 0 1-.4-.4-.3-1.4-.7-2.2-.8-.9-.1-1.3 0-1 .4zM253.5 850c.3.5.8 1 1.1 1 .2 0 .4-.5.4-1 0-.6-.5-1-1.1-1-.5 0-.7.4-.4 1zM267 849.5c0 .7 3 1.3 3.4.7.3-.4-.4-.9-1.5-.9-1-.1-1.9 0-1.9.2zM280.6 849.8c-.3.5.1.9.9.9s1.2-.4.9-.9c-.3-.4-.7-.8-.9-.8-.2 0-.6.4-.9.8zM311.6 850.2c.3.4 1.1.5 1.9.1 2.1-.7 1.9-1.2-.4-1-1.1 0-1.8.5-1.5.9zM329.5 850c.3.5.8 1 1.1 1 .2 0 .4-.5.4-1 0-.6-.5-1-1.1-1-.5 0-.7.4-.4 1zM345.6 850.2c.3.4 1.1.5 1.9.1 2.1-.7 1.9-1.2-.4-1-1.1 0-1.8.5-1.5.9zM353 850c0 .5.5 1 1.1 1 .5 0 .7-.5.4-1-.3-.6-.8-1-1.1-1-.2 0-.4.4-.4 1zM379.6 849.8c-.3.5.1.9.9.9s1.2-.4.9-.9c-.3-.4-.7-.8-.9-.8-.2 0-.6.4-.9.8zM392.6 849.8c-.3.5.1.9.9.9s1.2-.4.9-.9c-.3-.4-.7-.8-.9-.8-.2 0-.6.4-.9.8zM401 850c0 .5.5 1 1.1 1 .5 0 .7-.5.4-1-.3-.6-.8-1-1.1-1-.2 0-.4.4-.4 1zM425.5 850c.3.5.8 1 1.1 1 .2 0 .4-.5.4-1 0-.6-.5-1-1.1-1-.5 0-.7.4-.4 1zM441.6 850.2c.3.4 1.1.5 1.9.1 2.1-.7 1.9-1.2-.4-1-1.1 0-1.8.5-1.5.9zM472.6 849.8c-.3.5.1.9.9.9s1.2-.4.9-.9c-.3-.4-.7-.8-.9-.8-.2 0-.6.4-.9.8zM503.6 850.2c.3.4 1.1.5 1.9.1 2.1-.7 1.9-1.2-.4-1-1.1 0-1.8.5-1.5.9zM536.5 850c-.3.6.1.7.9.4 1.8-.7 2.1-1.4.7-1.4-.6 0-1.3.4-1.6 1zM567.6 850.2c.3.4 1.1.5 1.9.1 2.1-.7 1.9-1.2-.4-1-1.1 0-1.8.5-1.5.9zM585.5 850c.3.5.8 1 1.1 1 .2 0 .4-.5.4-1 0-.6-.5-1-1.1-1-.5 0-.7.4-.4 1zM601.6 850.2c.3.4 1.1.5 1.9.1 2.1-.7 1.9-1.2-.4-1-1.1 0-1.8.5-1.5.9zM609.5 850c-.3.5-.1 1 .4 1 .6 0 1.1-.5 1.1-1 0-.6-.2-1-.4-1-.3 0-.8.4-1.1 1zM635.6 850.2c.3.4 1.1.5 1.9.1 2.1-.7 1.9-1.2-.4-1-1.1 0-1.8.5-1.5.9zM653.6 850.2c.3.5 1 .6 1.5.3 1.3-.9 1.1-1.2-.6-1.2-.8 0-1.2.4-.9.9zM657.6 849.8c-.2.4-.1 1.4.4 2.2.7 1.1.9.9.7-.8-.1-2.4-.3-2.6-1.1-1.4zM259.3 851.5c0 .8.4 1.2.9.9.5-.3.6-1 .3-1.5-.9-1.3-1.2-1.1-1.2.6zM627.3 851.5c0 .8.4 1.2.9.9.5-.3.6-1 .3-1.5-.9-1.3-1.2-1.1-1.2.6zM193.9 852.7c-1.3 1.6-1.2 1.7.4.4 1.6-1.3 2.1-2.1 1.3-2.1-.2 0-1 .8-1.7 1.7zM694.4 851.8c.4.3 1.4.7 2.2.8.9.1 1.3 0 1-.4-.4-.3-1.4-.7-2.2-.8-.9-.1-1.3 0-1 .4zM415.6 857.3c.3 1 .9 1.5 1.2 1.2.3-.3 0-1.1-.7-1.8-1-.9-1.1-.8-.5.6z"/></svg>